<svg width="50" height="50" viewBox="0 0 50 50" fill="none" xmlns="http://www.w3.org/2000/svg">
<path d="M49.0547 36.0899C47.1432 35.7256 45.702 37.0311 43.8973 35.0857C43.4257 34.5777 42.7445 34.8641 42.5284 35.4828C40.9794 39.923 37.7572 37.7778 36.2808 34.6678C35.9948 34.0657 35.1849 34.1179 34.8871 34.6678C33.8667 37.4098 31.9017 37.7475 28.9916 35.6808C28.5294 35.2368 27.7712 35.3862 27.5974 36.0851C26.3306 41.1823 21.9034 39.7819 20.5395 35.5934C20.4708 35.3824 20.3231 35.2801 20.1697 35.2617C19.8593 34.8352 19.1565 34.7073 18.9143 35.3056C17.1696 39.6131 13.9312 38.9538 11.9156 35.3113C11.5518 34.654 10.8006 34.8819 10.5621 35.5057C8.86696 39.937 3.92773 39.8353 4.01569 34.5084C4.02534 33.9184 3.22123 33.8026 3.08526 34.3702C1.49426 41.0089 8.88993 42.1602 11.4518 37.2871C14.098 40.5921 18.0661 41.2703 19.9585 36.8224C21.573 41.7006 26.8471 42.6601 28.8074 37.8062C31.2967 39.6329 33.668 39.3459 35.5388 36.7507C37.8204 40.3286 41.8858 41.6467 43.6906 37.2317C45.3468 38.4627 46.4456 37.6015 48.842 37.8125C49.7364 37.8916 49.9408 36.2591 49.0547 36.0899Z" fill="#1574a1"/>
<path d="M48.6821 43.4668C47.8817 44.922 47.6051 46.226 45.8907 46.9373C43.7804 47.8135 41.6799 45.7229 40.64 44.0088C40.2812 43.4172 39.4109 43.3034 39.0757 44.0088C37.6068 47.1007 34.3535 46.3457 32.9653 43.3617C32.624 42.6276 31.4698 42.7586 31.328 43.5984C30.548 48.2241 27.0457 48.7137 24.7 45.361C24.956 44.4583 23.6205 43.8438 23.2564 44.7274C21.2873 49.5069 17.4432 48.973 15.212 44.7077C14.8248 43.9675 13.9572 44.2271 13.7071 44.9253C11.8938 49.9888 9.0695 47.5801 7.48464 44.0948C7.17597 43.4156 6.29565 43.6508 6.10955 44.2936C5.24344 47.2872 3.81653 47.8461 1.41264 48.6206C0.959938 48.7667 1.02986 49.6361 1.52769 49.5627C4.28204 49.1564 5.7864 48.6141 6.91215 46.3441C9.22495 50.3409 12.4537 51.1572 14.6203 46.9518C17.4295 50.8434 21.9423 51.287 24.1782 46.657C26.6618 50.3957 30.8269 50.2117 32.4947 46.1376C34.6465 48.9464 37.7784 49.3411 39.9452 46.1977C43.1698 49.7856 49.7647 50.5887 49.9998 43.8626C50.0291 43.0605 49.0362 42.8228 48.6821 43.4668Z" fill="#1574a1"/>
<path d="M14.8129 7.50507C14.273 7.67895 14.0602 8.12751 14.0766 8.5804C10.2511 9.20593 7.77448 13.383 7.47891 17.5845C7.07468 23.3329 11.4869 26.7097 16.2707 26.2809C21.1621 25.8428 24.3441 21.0025 24.2003 15.8007C24.0566 10.605 19.609 5.95773 14.8129 7.50507ZM15.6094 23.653C12.0984 23.9717 9.82709 21.3478 9.89423 17.5845C9.96471 13.6401 12.6957 11.0391 15.8615 9.99917C15.9194 9.98006 15.9612 9.94738 16.0083 9.9184C19.0944 10.4511 21.4284 11.7506 21.7563 15.8001C22.0967 20.0006 19.3098 23.3163 15.6094 23.653Z" fill="#1574a1"/>
<path d="M10.3605 7.33132C9.78469 6.63796 9.14674 6.02877 8.49346 5.4276C7.84575 4.83135 7.15877 3.67771 6.24557 3.77205C5.76195 3.822 5.43433 4.16143 5.40063 4.70711C5.33655 5.74267 6.25922 6.25136 6.93033 6.77947C7.69755 7.3828 8.49457 7.92263 9.20663 8.60859C9.99669 9.37008 11.0779 8.19485 10.3605 7.33132Z" fill="#1574a1"/>
<path d="M5.06699 10.4497C5.37399 10.4907 5.10265 10.4414 5.02158 10.4134C4.89706 10.3699 4.77504 10.3178 4.6533 10.266C4.5154 10.2077 4.37889 10.1448 4.24266 10.0819C4.23347 10.0776 4.22846 10.0755 4.21481 10.0687C4.08499 9.79276 3.86184 9.57048 3.57462 9.4709C3.06175 9.29239 2.28172 8.86602 1.72733 9.05871C1.41393 9.16784 1.08548 9.45486 1.02447 9.83653C1.02447 9.83653 1.02419 9.83808 1.02419 9.83869C0.966245 10.2003 0.991317 10.6708 1.28299 10.9223C1.44541 11.0617 1.6354 11.1604 1.83347 11.2454C1.67301 11.2448 1.80255 11.2532 1.94769 11.2905C2.05049 11.3296 2.1519 11.3697 2.25776 11.4008C2.51294 11.4958 2.76784 11.5923 3.02163 11.6906C3.16733 11.7477 3.31749 11.7526 3.46263 11.7236C3.98442 11.8771 4.55579 12.051 5.06727 12.0165C5.99718 11.9536 5.95735 10.569 5.06699 10.4497Z" fill="#1574a1"/>
<path d="M3.47371 19.2588C3.08314 19.6211 2.62738 19.905 2.18332 20.1772C1.95376 20.3181 1.71641 20.4639 1.47042 20.5666C1.32305 20.628 1.08848 20.5765 1.41275 20.6421C1.25173 20.6098 1.09907 20.6064 0.938883 20.5873C-0.411411 20.426 -0.288555 23.1242 1.19992 22.7222C1.74817 22.5742 2.3084 21.9952 2.77447 21.6244C3.3152 21.1943 3.85509 20.7241 4.30083 20.1741C4.81036 19.5458 4.04787 18.7258 3.47371 19.2588Z" fill="#1574a1"/>
<path d="M6.91438 24.6062C6.45694 25.3831 6.0399 26.1883 5.60476 26.9804C5.13312 27.8383 4.33414 28.4781 4.22939 29.5047C4.16253 30.1601 4.81107 30.4847 5.28996 30.3987C6.26918 30.223 6.74695 28.8437 7.10493 27.9503C7.47433 27.0285 7.70138 26.0616 7.99723 25.1109C8.22456 24.3787 7.26623 24.0081 6.91438 24.6062Z" fill="#1574a1"/>
<path d="M16.169 27.3986C16.0726 26.8502 15.3063 26.8764 15.194 27.3986C14.8992 28.7715 14.5541 30.1326 14.2646 31.5067C14.1947 31.8384 14.2549 32.2222 14.4925 32.4609C14.4535 32.4032 14.458 32.4146 14.5056 32.4945C14.7889 33.0068 15.3843 32.9483 15.6779 32.4945C15.4096 32.9088 15.8679 32.2938 15.8843 32.2623C15.9924 32.0579 16.0016 31.8433 16.013 31.614C16.037 31.1392 16.0874 30.6656 16.1284 30.1924C16.2089 29.2697 16.3306 28.3171 16.169 27.3986Z" fill="#1574a1"/>
<path d="M26.3464 28.2096C25.6457 27.0973 24.5331 26.3833 23.8962 25.2346C23.4603 24.4478 22.4618 25.1332 22.7986 25.9446C23.0906 26.6478 23.5366 27.2317 23.9971 27.8073C24.2169 28.082 24.442 28.3502 24.6353 28.6487C24.8991 29.0559 25.0075 29.5134 25.5218 29.5927C25.8176 29.6383 26.1553 29.5735 26.3046 29.2397C26.3185 29.2088 26.3325 29.178 26.3461 29.1469C26.4737 28.8626 26.5227 28.4899 26.3464 28.2096Z" fill="#1574a1"/>
<path d="M30.4227 19.9104C29.2435 19.9792 28.064 20.0452 26.8847 20.1102C25.8236 20.1688 25.8236 21.8737 26.8847 21.9325C28.0642 21.9979 29.2435 22.0639 30.4227 22.132C31.7176 22.2075 31.7176 19.8355 30.4227 19.9104Z" fill="#1574a1"/>
<path d="M30.4231 7.09895C29.3533 7.07429 28.4886 8.49614 27.8476 9.32207C27.1586 10.2093 26.5533 11.1709 25.851 12.0465C25.3144 12.7155 26.1415 13.6419 26.7396 13.0299C27.4478 12.3048 28.0908 11.5079 28.7705 10.751C29.1544 10.3237 29.5517 9.89334 29.9874 9.53047C30.5231 9.08499 30.944 8.9404 31.1822 8.20141C31.3591 7.65296 30.9039 7.11005 30.4231 7.09895Z" fill="#1574a1"/>
<path d="M25.2834 1.2963C24.6502 1.74579 24.2279 2.47583 23.7928 3.14329C23.2855 3.92143 22.8032 4.70327 22.2165 5.41296C21.5521 6.21669 22.5856 7.3731 23.2991 6.611C23.8529 6.01907 24.3432 5.37381 24.8238 4.70912C25.3397 3.99573 26.005 3.34245 26.4295 2.56431C26.8558 1.78371 25.9977 0.789458 25.2834 1.2963Z" fill="#1574a1"/>
<path d="M17.3713 0.226597C17.0626 -0.0755323 16.6587 -0.0755323 16.35 0.226597C15.7441 0.819757 16.0235 1.85532 16.0739 2.64486C16.1319 3.55064 16.194 4.45548 16.2684 5.36002C16.3377 6.20352 17.3835 6.20352 17.4529 5.36002C17.5273 4.45517 17.5894 3.55094 17.6474 2.64486C17.6978 1.85563 17.9772 0.819449 17.3713 0.226597Z" fill="#1574a1"/>
</svg>
