<?xml version="1.0" encoding="UTF-8" standalone="no"?>
<svg
   xmlns:dc="http://purl.org/dc/elements/1.1/"
   xmlns:cc="http://creativecommons.org/ns#"
   xmlns:rdf="http://www.w3.org/1999/02/22-rdf-syntax-ns#"
   xmlns:svg="http://www.w3.org/2000/svg"
   xmlns="http://www.w3.org/2000/svg"
   id="svg3983"
   version="1.1"
   viewBox="0 0 141.98763 97.087962"
   height="65px"
   width="65px">
  <defs
     id="defs3977">
    <clipPath
       id="clipPath510"
       clipPathUnits="userSpaceOnUse">
      <path
         id="path508"
         d="m 495.869,870.331 h 168.254 v -66.62 H 495.869 Z" />
    </clipPath>
    <clipPath
       id="clipPath526"
       clipPathUnits="userSpaceOnUse">
      <path
         id="path524"
         d="M 544.277,882.402 H 716.912 V 831.466 H 544.277 Z" />
    </clipPath>
    <clipPath
       id="clipPath658"
       clipPathUnits="userSpaceOnUse">
      <path
         id="path656"
         d="M 647.439,1074.98 H 666.3 v -13.82 h -18.861 z" />
    </clipPath>
    <clipPath
       id="clipPath674"
       clipPathUnits="userSpaceOnUse">
      <path
         id="path672"
         d="m 652.498,1074.98 h 20.413 v -15.73 h -20.413 z" />
    </clipPath>
    <clipPath
       id="clipPath782"
       clipPathUnits="userSpaceOnUse">
      <path
         id="path780"
         d="m 1019.13,1093.31 h 63.02 v -53.25 h -63.02 z" />
    </clipPath>
    <clipPath
       id="clipPath806"
       clipPathUnits="userSpaceOnUse">
      <path
         id="path804"
         d="m 1034.81,1095.74 h 31.14 v -20.01 h -31.14 z" />
    </clipPath>
    <clipPath
       id="clipPath822"
       clipPathUnits="userSpaceOnUse">
      <path
         id="path820"
         d="m 1014.19,1086.65 h 40.93 v -27.31 h -40.93 z" />
    </clipPath>
    <clipPath
       id="clipPath782-3"
       clipPathUnits="userSpaceOnUse">
      <path
         id="path780-6"
         d="m 1019.13,1093.31 h 63.02 v -53.25 h -63.02 z" />
    </clipPath>
    <clipPath
       id="clipPath806-7"
       clipPathUnits="userSpaceOnUse">
      <path
         id="path804-5"
         d="m 1034.81,1095.74 h 31.14 v -20.01 h -31.14 z" />
    </clipPath>
    <clipPath
       id="clipPath822-3"
       clipPathUnits="userSpaceOnUse">
      <path
         id="path820-5"
         d="m 1014.19,1086.65 h 40.93 v -27.31 h -40.93 z" />
    </clipPath>
  </defs>
  <metadata
     id="metadata3980">
    <rdf:RDF>
      <cc:Work
         rdf:about="">
        <dc:format>image/svg+xml</dc:format>
        <dc:type
           rdf:resource="http://purl.org/dc/dcmitype/StillImage" />
        <dc:title></dc:title>
      </cc:Work>
    </rdf:RDF>
  </metadata>
  <g
     transform="translate(-55.726747,1.0604245)"
     id="layer1">
    <g
       id="g5894"
       transform="matrix(0.35277777,0,0,-0.35277777,-208.5157,400.59959)">
      <g
         id="g704"
         transform="translate(1042.5919,991.83723)">
        <path
           d="m 0,0 c 0,-65.308 -52.942,-118.25 -118.25,-118.25 -65.309,0 -118.25,52.942 -118.25,118.25 0,65.307 52.941,118.25 118.25,118.25 C -52.942,118.25 0,65.307 0,0"
           style="fill:#d8d5ad;fill-opacity:1;fill-rule:nonzero;stroke:none"
           id="path706" />
      </g>
      <g
         id="g708"
         transform="translate(876.54991,943.81083)">
        <path
           d="m 0,0 c -5.345,-1.936 -14.891,-6.111 -19.674,-8.232 -1.731,-0.767 -2.759,-2.567 -2.548,-4.448 l 3.551,-32.008 c 0.274,-2.464 -1.558,-4.655 -4.031,-4.815 -9.871,-0.629 -32.542,-1.87 -34.066,-0.08 -2.716,3.194 16.613,6.39 23.731,9.301 1.623,0.663 2.46,1.277 2.474,3.026 0.059,8.583 -1.65,38.502 -0.728,39.464 4.807,5.013 20.077,9.338 27.667,11.24 2.383,0.597 4.778,-0.895 5.299,-3.298 L 2.78,5.006 C 3.24,2.877 2.048,0.745 0,0"
           style="fill:#f2b47c;fill-opacity:1;fill-rule:evenodd;stroke:none"
           id="path710" />
      </g>
      <g
         id="g712"
         transform="translate(967.11721,942.43093)">
        <path
           d="m 0,0 c 2.078,0 13.509,-9.592 13.509,-9.592 l -1.682,-34.379 c 0,0 30.298,-4.498 32.043,-2.669 2.86,2.997 -16.815,10.667 -19.342,11.786 0,0 1.912,24.447 -0.983,30.863 C 20.818,2.045 7.102,7.045 7.102,7.045 Z"
           style="fill:#f2b47c;fill-opacity:1;fill-rule:evenodd;stroke:none"
           id="path714" />
      </g>
      <g
         id="g716"
         transform="translate(1059.1573,1005.5027)">
        <path
           d="m 0,0 c -0.151,0.367 -2.661,0.261 -13.166,1.553 5.508,0.85 11.52,2.469 11.044,4.576 -0.222,0.966 -5.643,-0.068 -10.564,-0.988 2.695,1.232 4.571,2.522 4.193,3.758 -0.268,0.866 -4.719,-0.706 -9.214,-2.316 0.833,0.76 1.265,1.505 1.002,2.146 -0.364,0.885 -6.232,-1.928 -10.333,-3.58 -1.88,0.718 -3.846,1.411 -5.86,1.88 -0.151,0.036 -40.41,15.853 -57.235,21.851 -1.306,0.464 -9.228,6.369 -24.817,9.482 -2.925,4.483 1.17,13.742 2.025,16.095 0,0 -14.482,2.881 -15.4,4.134 0,0 1.699,-9.751 -5.641,-16.498 -17.85,3.767 -23.478,-2.122 -24.827,-2.465 -17.321,-4.37 -63.671,-17.52 -63.824,-17.541 -2.05,-0.279 -4.07,-0.781 -6.013,-1.316 -3.926,2.034 -9.499,5.392 -9.942,4.544 -0.327,-0.612 0.033,-1.394 0.793,-2.23 -4.324,2.029 -8.608,4.018 -8.953,3.18 -0.495,-1.193 1.246,-2.656 3.815,-4.139 -4.81,1.385 -10.108,2.927 -10.42,1.989 -0.677,-2.053 5.154,-4.237 10.556,-5.606 -10.581,-0.287 -13.069,0.055 -13.255,-0.297 -2.665,-5.072 12.55,-3.664 22.377,-4.514 2.805,-0.241 4.19,-2.951 3.949,-3.403 -0.85,-1.566 -2.588,-4.653 -2.769,-7.084 -0.755,-10.063 5.197,-0.062 7.301,3.101 3.222,4.844 5.682,7.671 5.682,7.671 19.64,4.471 39.783,9.359 59.88,13.707 1.942,0.42 3.045,-1.279 3.243,-3.254 4.964,-50.096 -7.844,-85.436 1.115,-87.066 12.023,-2.192 12.051,-8.403 22.251,-9.332 10.653,-0.971 7.699,0.633 16.348,9.015 7.186,6.968 3.185,42.57 10.769,60.86 1.119,2.699 5.999,21.323 8.78,20.425 17.774,-5.747 42.98,-13.346 60.336,-19.079 0,0 2.178,-3.045 4.928,-8.175 1.793,-3.348 6.768,-13.872 6.972,-3.778 0.051,2.434 -1.387,5.672 -2.083,7.314 -0.198,0.471 1.436,3.036 4.253,3.011 C -12.838,-2.458 2.173,-5.305 0,0"
           style="fill:#f2b47c;fill-opacity:1;fill-rule:evenodd;stroke:none"
           id="path718" />
      </g>
      <g
         id="g720"
         transform="translate(808.88091,893.99153)">
        <path
           d="M 0,0 C 0,0 340.705,7.452 339.801,6.453 292.246,-46.088 -100.325,-28.49 -53.074,-4.745 -49.706,-3.053 0,0 0,0"
           style="fill:#f7931e;fill-opacity:1;fill-rule:evenodd;stroke:none"
           id="path722" />
      </g>
      <g
         id="g724"
         transform="translate(902.45511,974.80943)">
        <path
           d="m 0,0 c -5.189,-0.538 -48.58,-21.648 -48.754,-21.887 -0.597,-0.818 20.176,-37.099 21.544,-37.832 12.263,8.207 32.672,18.719 46.84,17.721 14.618,-1.032 24.016,-18.525 37.018,-24.766 3.098,2.597 25.029,27.916 28.708,35.256 1.806,3.587 -38.474,22.901 -38.474,22.901 C 32.695,-5.836 14.402,-3.472 0,0"
           style="fill:#c1272d;fill-opacity:1;fill-rule:evenodd;stroke:none"
           id="path726" />
      </g>
      <g
         id="g728"
         transform="translate(930.01181,1073.18)">
        <path
           d="m 0,0 c -0.125,0.426 -1.812,20.75 -3.399,22.192 -1.584,1.443 -7.872,9.219 -7.872,9.219 0,0 -1.314,-2.365 -2.702,-5.213 l -0.494,1.77 c 0,0 -4.592,-6.653 -5.337,-12.139 -0.747,-5.485 -3.268,-10.062 -3.268,-10.062 0,0 1.843,0.296 3.921,2.494 l 2.077,2.198 c 0,0 0.972,-4.612 -0.743,-8.394 -1.712,-3.78 -3.303,-5.35 -3.303,-5.35 0,0 0.014,-1.013 3.858,2.78 1.559,1.537 2.578,2.551 3.21,3.179 0.033,-0.146 0.069,-0.294 0.102,-0.44 -0.433,-1.284 -0.831,-3.669 -1.098,-7.651 -0.374,-5.585 0.693,-9.038 0.538,-7.844 -0.155,1.193 1.303,4.344 1.303,4.344 0,0 5.096,-10.526 4.64,-8.861 -0.271,0.993 -1.113,9.478 -0.381,9.5 0.657,-1.113 2.074,-2.988 3.718,-4.478 2.09,-1.894 5.706,-5.063 4.728,-3.66 -0.975,1.401 -0.446,2.556 -0.446,2.556 0,0 6.315,-4.624 5.681,-3.829 C 4.098,-16.896 0.122,-0.426 0,0"
           style="fill:#000000;fill-opacity:1;fill-rule:evenodd;stroke:none"
           id="path730" />
      </g>
      <g
         id="g732"
         transform="translate(972.31451,1083.4754)">
        <path
           d="M 0,0 C 0.824,0.738 1.709,3.768 5.234,2.387 8.765,1.009 7.574,-5.277 5.437,-9.291 2.66,-14.507 -3.308,-22.593 -3.28,-12.821 -3.267,-9.111 0,0 0,0"
           style="fill:#f2b47c;fill-opacity:1;fill-rule:evenodd;stroke:none"
           id="path734" />
      </g>
      <g
         id="g736"
         transform="translate(972.94051,1072.9612)">
        <path
           d="m 0,0 c -10.726,-41.095 -54.459,-25.245 -55.494,10.205 -0.351,12.041 -3.102,27.015 9.309,32.423 C -33.771,48.035 -2.526,38.793 3.21,32.167 8.923,25.568 4.079,15.635 0,0"
           style="fill:#f2b47c;fill-opacity:1;fill-rule:evenodd;stroke:none"
           id="path738" />
      </g>
      <g
         id="g740"
         transform="translate(967.18461,1110.6043)">
        <path
           d="m 0,0 c 0.256,-0.92 -2.981,-9.062 -2.981,-9.062 19.607,-2.655 13.419,-11.34 8.343,-30.021 11.549,16.036 19.482,35.728 2.742,37.51 C 2.282,-0.954 0,0 0,0"
           style="fill:#000000;fill-opacity:1;fill-rule:evenodd;stroke:none"
           id="path742" />
      </g>
      <g
         id="g744"
         transform="translate(945.03811,1086.3772)">
        <path
           d="m 0,0 c -0.35,0.606 -2.662,3.377 -5.934,4.842 -3.269,1.467 -6.965,1.352 -6.665,2.063 0.296,0.712 3.203,1.627 6.366,0.753 C -3.072,6.786 -0.043,4.978 1.39,2.597 2.819,0.219 1.757,-0.56 1.002,-0.431 0.253,-0.3 0,0 0,0"
           style="fill:#42210b;fill-opacity:1;fill-rule:evenodd;stroke:none"
           id="path746" />
      </g>
      <g
         id="g748"
         transform="translate(951.24131,1069.1238)">
        <path
           d="M 0,0 C 0.189,0.239 0.813,0.681 -0.206,1.198 -1.223,1.715 -4.8,2.018 -4.271,1.423 -3.743,0.831 0,0 0,0"
           style="fill:#af805a;fill-opacity:1;fill-rule:evenodd;stroke:none"
           id="path750" />
      </g>
      <g
         id="g752"
         transform="translate(939.38091,1087.4549)">
        <path
           d="m 0,0 c -1.466,0.196 -2.827,-1.073 -3.042,-2.833 -0.214,-1.762 0.802,-3.349 2.269,-3.545 1.466,-0.194 2.824,1.075 3.039,2.836 C 2.479,-1.781 1.464,-0.194 0,0"
           style="fill:#43261b;fill-opacity:1;fill-rule:evenodd;stroke:none"
           id="path754" />
      </g>
      <g
         id="g756"
         transform="translate(938.22371,1086.6282)">
        <path
           d="m 0,0 c -0.432,0.107 -0.872,-0.258 -0.987,-0.816 -0.112,-0.558 0.149,-1.098 0.583,-1.205 0.431,-0.107 0.872,0.257 0.985,0.815 C 0.692,-0.647 0.431,-0.107 0,0"
           style="fill:#ffffff;fill-opacity:1;fill-rule:evenodd;stroke:none"
           id="path758" />
      </g>
      <g
         id="g760"
         transform="translate(959.77061,1082.6917)">
        <path
           d="M 0,0 C 0.585,0.38 3.905,1.802 7.485,1.626 11.063,1.451 14.302,-0.328 14.361,0.442 14.416,1.212 12.243,3.344 9.027,4 5.815,4.654 2.295,4.417 -0.062,2.945 -2.414,1.474 -1.819,0.296 -1.091,0.069 -0.361,-0.155 0,0 0,0"
           style="fill:#42210b;fill-opacity:1;fill-rule:evenodd;stroke:none"
           id="path762" />
      </g>
      <g
         id="g764"
         transform="translate(966.21491,1080.8382)">
        <path
           d="m 0,0 c -1.365,0.603 -2.976,-0.242 -3.6,-1.886 -0.626,-1.647 -0.027,-3.469 1.338,-4.073 1.364,-0.606 2.977,0.239 3.601,1.886 C 1.964,-2.428 1.364,-0.604 0,0"
           style="fill:#43261b;fill-opacity:1;fill-rule:evenodd;stroke:none"
           id="path766" />
      </g>
      <g
         id="g768"
         transform="translate(964.90441,1080.3616)">
        <path
           d="m 0,0 c -0.392,0.228 -0.904,-0.002 -1.144,-0.51 -0.239,-0.508 -0.117,-1.105 0.272,-1.33 0.392,-0.228 0.904,0 1.143,0.51 C 0.513,-0.822 0.391,-0.226 0,0"
           style="fill:#ffffff;fill-opacity:1;fill-rule:evenodd;stroke:none"
           id="path770" />
      </g>
      <g
         id="g772"
         transform="translate(969.29501,1133.2972)">
        <path
           d="m 0,0 c 0,0 2.377,-2.805 1.956,-5.688 -5.111,5.86 -14.689,8.12 -14.689,8.12 l 3.475,-7.953 c -8.296,5.968 -24.499,5.773 -23.529,5.388 0.687,-0.272 2.099,-2.258 2.911,-3.472 -2.464,0.681 -5.13,1.133 -7.446,0.867 -6.445,-0.737 -10.26,-2.211 -10.26,-2.211 0,0 2.652,-1.153 3.334,-1.417 0.035,-0.006 0.08,-0.007 0.102,-0.018 0.107,-0.059 0.061,0.06 -0.102,0.018 -10.442,-2.709 -13.656,-11.228 -13.656,-11.228 l 4.724,2.302 c -1.556,-1.266 -3.937,-3.532 -5.836,-7.026 -2.189,-4.026 -2.697,-7.761 -2.827,-9.854 0.543,0.4 1.108,0.847 1.676,1.362 0.511,0.464 0.894,0.84 0.894,0.84 0,0 -2.67,-4.786 -1.932,-9.037 0,0 3.868,3.508 5.35,3.505 0.627,-1.235 1.785,-3.08 1.785,-3.08 0,0 1.958,4.16 3.437,0.642 0.229,-0.545 2.368,-18.613 2.115,-15.999 -0.055,0.555 1.891,15.259 2.614,20.932 0.72,5.673 1.173,6.842 1.587,7.019 17.524,7.444 33.799,-4.18 39.225,-5.766 C 17.459,-38.328 22.473,-11.389 0,0"
           style="fill:#000000;fill-opacity:1;fill-rule:evenodd;stroke:none"
           id="path774" />
      </g>
      <g
         id="g776"
         transform="translate(-98.301693,39.987129)">
        <g
           id="g778" />
        <g
           id="g790">
          <g
             clip-path="url(#clipPath782-3)"
             id="g788">
            <g
               transform="translate(1019.1318,1040.0625)"
               id="g786">
              <path
                 d="m 0,0 c 0.315,3.055 1.92,15.204 2.561,20.24 0.72,5.674 1.172,6.843 1.586,7.019 17.525,7.444 33.8,-4.18 39.226,-5.766 22.551,-6.575 27.565,20.366 5.092,31.755 0,0 8.069,-6.493 10.095,-11.848 2.025,-5.354 0.189,-11.417 -5.153,-14.638 -5.344,-3.222 -11.804,-1.988 -11.804,-1.988 0,0 -12.771,5.331 -18.24,6.852 C 17.896,33.146 7.359,31.693 4.68,30.018 2.002,28.343 0.302,12.362 0.25,9.004 0.212,6.428 0.065,1.943 0,0"
                 style="fill:#f1f2f2;fill-opacity:1;fill-rule:evenodd;stroke:none"
                 id="path784" />
            </g>
          </g>
        </g>
      </g>
      <g
         id="g792"
         transform="translate(918.66221,1095.3567)">
        <path
           d="M 0,0 C -0.673,0.888 -0.978,4.033 -4.697,3.369 -8.418,2.706 -8.418,-3.699 -7.063,-8.057 -5.306,-13.722 -0.95,-22.826 0.835,-13.228 1.514,-9.581 0,0 0,0"
           style="fill:#f2b47c;fill-opacity:1;fill-rule:evenodd;stroke:none"
           id="path794" />
      </g>
      <g
         id="g796"
         transform="translate(912.28621,1094.5149)">
        <path
           d="m 0,0 c -0.524,-1.51 1.478,-9.83 2.687,-11.748 1.212,-1.919 2.72,-2.23 3.225,-0.428 0.506,1.804 -2.127,4.779 -1.944,6.312 0.179,1.532 0.475,1.2 0.817,2.377 C 6.237,1.512 0.646,1.86 0,0"
           style="fill:#af805a;fill-opacity:1;fill-rule:evenodd;stroke:none"
           id="path798" />
      </g>
      <g
         id="g800"
         transform="translate(-98.301693,39.987129)">
        <g
           id="g802" />
        <g
           id="g814">
          <g
             clip-path="url(#clipPath806-7)"
             id="g812">
            <g
               transform="translate(1058.3389,1087.7891)"
               id="g810">
              <path
                 d="m 0,0 -3.476,7.953 c 0,0 0.388,-0.092 1.053,-0.286 C 4.601,5.184 8.544,-7.838 7.417,-12.063 4.829,-2.11 -14.532,4.041 -23.529,5.388 l 0.412,0.125 C -20.509,5.723 -7.24,5.209 0,0"
                 style="fill:#f1f2f2;fill-opacity:1;fill-rule:evenodd;stroke:none"
                 id="path808" />
            </g>
          </g>
        </g>
      </g>
      <g
         id="g816"
         transform="translate(-98.301693,39.987129)">
        <g
           id="g818" />
        <g
           id="g830">
          <g
             clip-path="url(#clipPath822-3)"
             id="g828">
            <g
               transform="translate(1017.0928,1061.0933)"
               id="g826">
              <path
                 d="m 0,0 c 10.062,26.795 38.954,10.632 38.003,11.398 -0.839,0.676 -1.725,4.539 -11.289,6.955 -9.565,2.417 -16.829,-0.363 -16.368,-0.128 0.457,0.234 -0.711,1.286 6.833,2.985 7.545,1.7 16.979,-1.327 16.979,-1.327 C 22.959,29.33 9.279,26.062 2.111,16.777 -1.794,11.717 -4.178,-6.552 -2.19,-0.568 l 2.718,8.196 z"
                 style="fill:#f1f2f2;fill-opacity:1;fill-rule:evenodd;stroke:none"
                 id="path824" />
            </g>
          </g>
        </g>
      </g>
      <g
         id="g832"
         transform="translate(957.25401,1063.1258)">
        <path
           d="m 0,0 c -0.565,0.585 -18.796,5.576 -19.508,5.367 -0.711,-0.21 -5.347,-6.376 -5.456,-7.909 -0.108,-1.53 -6.168,4.136 -7.96,8.484 -1.79,4.349 -3.684,26.141 -3.684,26.141 0,0 -1.627,-5.565 -3.163,-12.774 1.435,-31.183 36.007,-46.758 50.992,-20.717 C 7.686,-3.975 0.163,-9.311 -0.863,-9.029 -2.214,-8.662 0.564,-0.586 0,0"
           style="fill:#af805a;fill-opacity:1;fill-rule:evenodd;stroke:none"
           id="path834" />
      </g>
      <g
         id="g836"
         transform="translate(938.63091,1066.4768)">
        <path
           d="M 0,0 C 1.799,-8.454 11.086,-11.031 16.505,-4.13 Z"
           style="fill:#46110f;fill-opacity:1;fill-rule:evenodd;stroke:none"
           id="path838" />
      </g>
      <g
         id="g840"
         transform="translate(940.10651,1066.1077)">
        <path
           d="M 0,0 C -0.601,-4.265 12.596,-7.792 13.499,-3.378 Z"
           style="fill:#ffffff;fill-opacity:1;fill-rule:evenodd;stroke:none"
           id="path842" />
      </g>
      <g
         id="g844"
         transform="translate(941.34671,1058.6956)">
        <path
           d="M 0,0 C 0,0 5.916,-1.706 6.418,-1.804 6.921,-1.904 5.565,-2.481 4.495,-2.161 2.358,-1.526 1.133,-1.485 0,0"
           style="fill:#d2a895;fill-opacity:1;fill-rule:evenodd;stroke:none"
           id="path846" />
      </g>
    </g>
  </g>
</svg>
